<svg xmlns="http://www.w3.org/2000/svg" class="logo logo--full" data-name="Ebene 1" viewBox="0 0 99.7 64.9"><path d="M94.2 5.5v54l-82.8-.4L6 5.5M99.7 0H0l.5 5.9 4.2 53.6.4 5h5.1l84 .4h5.5V0Z" style="fill:#fff"/><path d="M28.3 31h-.1L26 51.5h-8.3l-4.3-38.4h5.9l3.2 30.3h.1l2.8-30.3h5.8l3 30.5h.1l3.1-30.5h5.3l-4.3 38.4h-8ZM49.9 31.3v-.1c-2.9-1.2-4.2-3.7-4.2-7.8v-.7c0-6.1 3-9.5 9-9.5h6.9v5.5h-6.8c-1.9 0-3.1 1-3.1 3.7v2.4c0 3.1 1.4 4.1 3.6 4.1h2.6v-4.3h6v4.3h1.6v5.5h-1.6V47a11.633 11.633 0 0 0 .7 4.7h-6.1a8.6 8.6 0 0 1-.5-3h-.1a5.632 5.632 0 0 1-5.5 3.5c-4.4 0-6.7-3.1-6.7-8.8v-3.9c.1-4.1 1.3-6.9 4.2-8.2Zm5 15.1c1.8 0 3-.9 3.1-3.3v-8.9h-2.3c-2.7 0-3.9 1.3-3.9 4.9v3.6c0 2.7 1.2 3.7 3.1 3.7ZM77.6 12.7c5.9 0 8.9 3.5 8.9 9.6v1.2h-5.7v-1.6c0-2.7-1.1-3.8-3-3.8s-3 1-3 3.8 1.2 4.9 5.2 8.3c5 4.4 6.6 7.6 6.6 12 0 6.1-3.1 9.6-9 9.6s-9-3.5-9-9.6v-2.4h5.7v2.7c0 2.7 1.2 3.7 3.1 3.7s3.1-1 3.1-3.7c0-2.8-1.2-4.9-5.2-8.3-5-4.4-6.6-7.6-6.6-12 0-6 3.1-9.5 8.9-9.5Z" style="fill:#fff"/></svg>